<svg width="43" height="43" viewBox="0 0 43 43" fill="none" xmlns="http://www.w3.org/2000/svg">
<g clip-path="url(#clip0_1_2110)">
<path d="M15.1304 1.88138C10.9339 3.33717 7.31489 6.10031 4.80489 9.76492C2.29489 13.4295 1.02621 17.8025 1.18518 22.2414C1.34416 26.6804 2.92243 30.9514 5.68816 34.427C8.45389 37.9027 12.2613 40.3998 16.5511 41.5517C20.029 42.4491 23.6728 42.4885 27.1693 41.6665C30.3367 40.9551 33.2651 39.4332 35.6677 37.25C38.1683 34.9083 39.9833 31.9294 40.9177 28.6334C41.9333 25.0492 42.114 21.2799 41.446 17.615H21.916V25.7164H33.2264C33.0004 27.0085 32.516 28.2417 31.8022 29.3423C31.0884 30.4428 30.16 31.388 29.0724 32.1214C27.6912 33.035 26.1343 33.6497 24.5016 33.9261C22.8641 34.2306 21.1844 34.2306 19.5469 33.9261C17.8872 33.5829 16.3172 32.8979 14.9368 31.9147C12.7191 30.3449 11.054 28.1147 10.179 25.5425C9.28912 22.9221 9.28912 20.0812 10.179 17.4608C10.8018 15.624 11.8315 13.9516 13.1911 12.5684C14.7471 10.9565 16.7169 9.80428 18.8846 9.2382C21.0523 8.67211 23.334 8.71403 25.4794 9.35935C27.1554 9.87383 28.688 10.7727 29.955 11.9844C31.2304 10.7156 32.5035 9.44357 33.7744 8.16826C34.4307 7.48248 35.146 6.82951 35.7924 6.12732C33.8583 4.32748 31.5881 2.92698 29.1118 2.00607C24.6024 0.368695 19.6683 0.324692 15.1304 1.88138Z" fill="white"/>
<path d="M15.1317 1.88103C19.6692 0.323276 24.6033 0.36612 29.1131 2.00243C31.5899 2.92959 33.8591 4.33684 35.7905 6.14337C35.1342 6.84556 34.4419 7.50181 33.7725 8.18431C32.4994 9.45525 31.2273 10.7218 29.9564 11.984C28.6893 10.7724 27.1567 9.87347 25.4808 9.359C23.3361 8.71141 21.0544 8.66707 18.8862 9.23084C16.7179 9.79461 14.7469 10.9447 13.1892 12.5549C11.8296 13.9381 10.7999 15.6105 10.177 17.4473L3.375 12.1809C5.80971 7.35271 10.0253 3.65954 15.1317 1.88103Z" fill="#E33629"/>
<path d="M1.56898 17.3988C1.93458 15.5869 2.54155 13.8322 3.37366 12.1816L10.1757 17.4612C9.28587 20.0816 9.28587 22.9225 10.1757 25.5429C7.90944 27.2929 5.6421 29.0516 3.37366 30.8191C1.29056 26.6727 0.655254 21.9483 1.56898 17.3988Z" fill="#F8BD00"/>
<path d="M21.9175 17.6113H41.4475C42.1155 21.2763 41.9348 25.0456 40.9192 28.6298C39.9848 31.9257 38.1698 34.9046 35.6692 37.2463C33.474 35.5335 31.269 33.8338 29.0739 32.121C30.1622 31.3869 31.0911 30.4407 31.8049 29.3389C32.5187 28.2372 33.0027 27.0027 33.2279 25.7095H21.9175C21.9142 23.0123 21.9175 20.3118 21.9175 17.6113Z" fill="#587DBD"/>
<path d="M3.37109 30.8192C5.63953 29.0692 7.90688 27.3105 10.1731 25.543C11.0499 28.1161 12.7174 30.3464 14.9375 31.9152C16.3222 32.8938 17.8956 33.5733 19.5575 33.9102C21.195 34.2146 22.8747 34.2146 24.5122 33.9102C26.1449 33.6338 27.7018 33.0191 29.083 32.1055C31.2781 33.8183 33.4831 35.518 35.6783 37.2308C33.2761 39.4152 30.3476 40.9382 27.1798 41.6506C23.6834 42.4726 20.0396 42.4332 16.5617 41.5358C13.8111 40.8013 11.2417 39.5066 9.01484 37.7328C6.65779 35.8615 4.73267 33.5032 3.37109 30.8192Z" fill="#319F43"/>
</g>
<defs>
<clipPath id="clip0_1_2110">
<rect width="42" height="42" fill="white" transform="translate(0.5 0.5)"/>
</clipPath>
</defs>
</svg>
