<svg width="43" height="43" viewBox="0 0 43 43" fill="none" xmlns="http://www.w3.org/2000/svg">
<path d="M32.8285 40.2365C30.6316 42.3661 28.233 42.0299 25.9241 41.0211C23.4806 39.9899 21.2389 39.9451 18.661 41.0211C15.4329 42.411 13.7292 42.0075 11.8014 40.2365C0.8619 28.9608 2.47592 11.7894 14.8949 11.1617C17.9212 11.3186 20.0284 12.8206 21.7994 12.9551C24.4446 12.4171 26.9777 10.8703 29.8022 11.072C33.1872 11.341 35.7427 12.6861 37.424 15.1071C30.4299 19.2991 32.0887 28.5124 38.5 31.0904C37.2222 34.4529 35.5634 37.7931 32.8061 40.2589L32.8285 40.2365ZM21.5752 11.0272C21.2389 6.02823 25.2964 1.90351 29.9591 1.5C30.6092 7.28358 24.7136 11.5876 21.5752 11.0272Z" fill="black"/>
</svg>
