<svg width="43" height="43" viewBox="0 0 43 43" fill="none" xmlns="http://www.w3.org/2000/svg">
<g clip-path="url(#clip0_1_2117)">
<path d="M42.5 21.5C42.5 9.90209 33.0979 0.5 21.5 0.5C9.90209 0.5 0.5 9.90209 0.5 21.5C0.5 31.9816 8.17944 40.6696 18.2188 42.2449V27.5703H12.8867V21.5H18.2188V16.8734C18.2188 11.6103 21.354 8.70312 26.1508 8.70312C28.4484 8.70312 30.8516 9.11328 30.8516 9.11328V14.2812H28.2036C25.5948 14.2812 24.7812 15.9001 24.7812 17.5609V21.5H30.6055L29.6744 27.5703H24.7812V42.2449C34.8206 40.6696 42.5 31.9818 42.5 21.5Z" fill="#1877F2"/>
<path d="M29.6744 27.5703L30.6055 21.5H24.7812V17.5609C24.7812 15.8999 25.5948 14.2812 28.2036 14.2812H30.8516V9.11328C30.8516 9.11328 28.4484 8.70312 26.1507 8.70312C21.354 8.70312 18.2188 11.6103 18.2188 16.8734V21.5H12.8867V27.5703H18.2188V42.2449C19.3042 42.415 20.4013 42.5003 21.5 42.5C22.5987 42.5003 23.6958 42.415 24.7812 42.2449V27.5703H29.6744Z" fill="white"/>
</g>
<defs>
<clipPath id="clip0_1_2117">
<rect width="42" height="42" fill="white" transform="translate(0.5 0.5)"/>
</clipPath>
</defs>
</svg>
