<svg width="105" height="109" viewBox="0 0 105 109" fill="none" xmlns="http://www.w3.org/2000/svg">
<g clip-path="url(#clip0_1_2052)">
<rect width="104.873" height="109" rx="19.6988" fill="#828999"/>
<path d="M20.9721 46.0576H22.4186L32.1742 54.4062V56.2822L22.4186 66.3192H21.011C20.5927 66.3192 20.1934 66.1447 19.9093 65.8377L11.4076 56.649C11.1895 56.4132 11.0683 56.1038 11.0683 55.7826C11.0683 55.442 11.2045 55.1156 11.4466 54.876L19.9163 46.4918C20.1973 46.2137 20.5767 46.0576 20.9721 46.0576Z" fill="url(#paint0_linear_1_2052)" fill-opacity="0.5"/>
<path d="M83.9927 46.0576H82.5462L72.7906 54.4062V56.2822L82.5462 66.3192H83.9538C84.3721 66.3192 84.7714 66.1447 85.0555 65.8377L93.5572 56.649C93.7753 56.4132 93.8965 56.1038 93.8965 55.7826C93.8965 55.442 93.7603 55.1156 93.5183 54.876L85.0486 46.4918C84.7675 46.2137 84.3881 46.0576 83.9927 46.0576Z" fill="url(#paint1_linear_1_2052)" fill-opacity="0.5"/>
<path d="M22.6694 47.2734L29.4536 54.312V59.0022H29.0784L22.6128 65.5517C22.1276 66.0433 21.8555 66.7062 21.8555 67.3969V70.1428C21.8555 70.8192 22.1164 71.4695 22.584 71.9583L29.3345 79.0157C29.83 79.5337 30.5156 79.8267 31.2325 79.8267H40.0534V80.9523L51.464 92.4528C51.7856 92.7769 52.2233 92.9592 52.6799 92.9592C53.1248 92.9592 53.5522 92.7861 53.8717 92.4766L65.3804 81.3275L65.568 79.8267H73.5952C74.2822 79.8267 74.9419 79.5575 75.4328 79.0768L82.8832 71.7816C83.3878 71.2876 83.6722 70.6111 83.6722 69.9049V67.4911C83.6722 66.8002 83.3999 66.1371 82.9144 65.6455L76.1679 58.8146V54.312L82.9144 47.4812C83.3999 46.9896 83.6722 46.3265 83.6722 45.6355V41.2196C83.6722 40.5325 83.4029 39.8727 82.9221 39.3818L75.5333 31.8374C75.0392 31.333 74.3629 31.0487 73.6568 31.0487H65.568V28.9473C65.568 28.2507 65.2913 27.5827 64.7987 27.0901L54.3126 16.604C53.8915 16.1829 53.3204 15.9463 52.7249 15.9463C52.1199 15.9463 51.5406 16.1904 51.1181 16.6232L40.9881 27.0003C40.5091 27.4909 40.241 28.1494 40.241 28.835V31.0487H32.1203C31.4331 31.0487 30.7733 31.318 30.2824 31.7989L22.66 39.2657C22.1463 39.769 21.8614 40.4609 21.8718 41.18L21.9342 45.4888C21.9439 46.1554 22.2067 46.7934 22.6694 47.2734Z" fill="#2E3B55"/>
<path d="M38.6464 48.7775L25.4201 36.583L21.7617 39.8661V46.4324L30.5793 55.719L38.6464 48.7775Z" fill="#586277"/>
<path d="M83.766 66.5064L75.6989 58.2517L71.2901 63.2233L81.7023 73.0727L83.766 71.009V66.5064Z" fill="#586277"/>
<path d="M56.3077 31.8936H49.8594C49.4662 31.8936 49.0887 32.0478 48.8081 32.3232L29.5277 51.2449C29.2401 51.5271 29.0781 51.9132 29.0781 52.3161V60.5775C29.0781 61.0078 29.2627 61.4173 29.5851 61.7022L48.8202 78.7006C49.0945 78.9431 49.448 79.0769 49.8141 79.0769H56.4346C56.818 79.0769 57.1869 78.9301 57.4656 78.6667L75.4477 61.6687C75.7291 61.4027 75.8968 61.0382 75.9158 60.6514L76.3231 52.342C76.3436 51.9239 76.1885 51.5162 75.8954 51.2174L57.3791 32.3434C57.0969 32.0556 56.7108 31.8936 56.3077 31.8936Z" fill="#1C2333"/>
<path d="M45.9085 48.6155L52.0259 44.2235C52.6084 43.8053 53.3915 43.8006 53.9789 44.2118L60.2036 48.5691C60.4007 48.7071 60.5659 48.8855 60.6884 49.0924L62.8333 52.7166C63.0809 53.1349 63.1362 53.6397 62.985 54.1017L59.9855 63.2668C59.894 63.5462 59.7312 63.7969 59.5131 63.9941L54.1583 68.8355C53.5037 69.4273 52.5039 69.4153 51.8638 68.808L45.9821 63.2279C45.7847 63.0406 45.6354 62.8084 45.5471 62.551L42.6805 54.1969C42.5035 53.681 42.5866 53.1113 42.9036 52.6675L45.5192 49.0057C45.6267 48.8552 45.7582 48.7234 45.9085 48.6155Z" fill="url(#paint2_radial_1_2052)"/>
</g>
<defs>
<linearGradient id="paint0_linear_1_2052" x1="11.9126" y1="55.1566" x2="29.0787" y2="56.1884" gradientUnits="userSpaceOnUse">
<stop stop-color="#D5D8DD"/>
<stop offset="1" stop-color="#737477"/>
</linearGradient>
<linearGradient id="paint1_linear_1_2052" x1="93.8965" y1="56.1884" x2="74.6667" y2="56.1884" gradientUnits="userSpaceOnUse">
<stop stop-color="#D5D8DD"/>
<stop offset="1" stop-color="#737477"/>
</linearGradient>
<radialGradient id="paint2_radial_1_2052" cx="0" cy="0" r="1" gradientUnits="userSpaceOnUse" gradientTransform="translate(52.8107 56.7048) rotate(90) scale(13.1794 10.4122)">
<stop stop-color="#F1E7D1"/>
<stop offset="1" stop-color="#D4B874"/>
</radialGradient>
<clipPath id="clip0_1_2052">
<rect width="104.873" height="109" fill="white"/>
</clipPath>
</defs>
</svg>
